<mxfile host="app.diagrams.net" agent="Mozilla/5.0 (Windows NT 10.0; Win64; x64) AppleWebKit/537.36 (KHTML, like Gecko) Chrome/134.0.0.0 Safari/537.36" version="26.2.7">
  <diagram id="prtHgNgQTEPvFCAcTncT" name="Insert payment">
    <mxGraphModel dx="985" dy="521" grid="1" gridSize="10" guides="1" tooltips="1" connect="1" arrows="1" fold="1" page="1" pageScale="1" pageWidth="827" pageHeight="1169" math="0" shadow="0">
      <root>
        <mxCell id="0" />
        <mxCell id="1" parent="0" />
        <mxCell id="_okyq2U6kwoVMUsh7JZo-4" style="edgeStyle=orthogonalEdgeStyle;rounded=0;orthogonalLoop=1;jettySize=auto;html=1;curved=0;" edge="1" parent="1">
          <mxGeometry relative="1" as="geometry">
            <mxPoint x="110.5" y="200" as="sourcePoint" />
            <mxPoint x="350.5" y="200" as="targetPoint" />
          </mxGeometry>
        </mxCell>
        <mxCell id="_okyq2U6kwoVMUsh7JZo-5" value="Checkout product" style="edgeLabel;html=1;align=center;verticalAlign=middle;resizable=0;points=[];" vertex="1" connectable="0" parent="_okyq2U6kwoVMUsh7JZo-4">
          <mxGeometry x="0.2125" relative="1" as="geometry">
            <mxPoint x="-20" y="-10" as="offset" />
          </mxGeometry>
        </mxCell>
        <mxCell id="_okyq2U6kwoVMUsh7JZo-1" value="customer" style="shape=umlLifeline;perimeter=lifelinePerimeter;whiteSpace=wrap;html=1;container=1;dropTarget=0;collapsible=0;recursiveResize=0;outlineConnect=0;portConstraint=eastwest;newEdgeStyle={&quot;curved&quot;:0,&quot;rounded&quot;:0};" vertex="1" parent="1">
          <mxGeometry x="61" y="120" width="100" height="300" as="geometry" />
        </mxCell>
        <mxCell id="_okyq2U6kwoVMUsh7JZo-6" style="edgeStyle=orthogonalEdgeStyle;rounded=0;orthogonalLoop=1;jettySize=auto;html=1;curved=0;" edge="1" parent="1">
          <mxGeometry relative="1" as="geometry">
            <mxPoint x="350.5" y="220" as="sourcePoint" />
            <mxPoint x="590.5" y="220" as="targetPoint" />
          </mxGeometry>
        </mxCell>
        <mxCell id="_okyq2U6kwoVMUsh7JZo-7" value="Send payment data" style="edgeLabel;html=1;align=center;verticalAlign=middle;resizable=0;points=[];" vertex="1" connectable="0" parent="_okyq2U6kwoVMUsh7JZo-6">
          <mxGeometry x="-0.1708" y="-1" relative="1" as="geometry">
            <mxPoint x="10" y="-14" as="offset" />
          </mxGeometry>
        </mxCell>
        <mxCell id="_okyq2U6kwoVMUsh7JZo-2" value="Laravel&amp;nbsp;&lt;div&gt;Project&lt;/div&gt;" style="shape=umlLifeline;perimeter=lifelinePerimeter;whiteSpace=wrap;html=1;container=1;dropTarget=0;collapsible=0;recursiveResize=0;outlineConnect=0;portConstraint=eastwest;newEdgeStyle={&quot;curved&quot;:0,&quot;rounded&quot;:0};" vertex="1" parent="1">
          <mxGeometry x="301" y="120" width="100" height="300" as="geometry" />
        </mxCell>
        <mxCell id="_okyq2U6kwoVMUsh7JZo-3" value="Labayar" style="shape=umlLifeline;perimeter=lifelinePerimeter;whiteSpace=wrap;html=1;container=1;dropTarget=0;collapsible=0;recursiveResize=0;outlineConnect=0;portConstraint=eastwest;newEdgeStyle={&quot;curved&quot;:0,&quot;rounded&quot;:0};" vertex="1" parent="1">
          <mxGeometry x="541" y="120" width="100" height="300" as="geometry" />
        </mxCell>
        <mxCell id="_okyq2U6kwoVMUsh7JZo-11" value="Payment data must include customerId, orderId, paymentType, nettTotal" style="shape=note;whiteSpace=wrap;html=1;backgroundOutline=1;fontColor=#000000;darkOpacity=0.05;fillColor=#FFF9B2;strokeColor=none;fillStyle=solid;direction=west;gradientDirection=north;gradientColor=#FFF2A1;shadow=1;size=20;pointerEvents=1;align=center;" vertex="1" parent="1">
          <mxGeometry x="254" y="230" width="194" height="40" as="geometry" />
        </mxCell>
        <mxCell id="_okyq2U6kwoVMUsh7JZo-16" value="Payment info" style="html=1;verticalAlign=bottom;endArrow=open;dashed=1;endSize=8;curved=0;rounded=0;" edge="1" parent="1">
          <mxGeometry relative="1" as="geometry">
            <mxPoint x="590" y="340" as="sourcePoint" />
            <mxPoint x="350.5" y="340" as="targetPoint" />
          </mxGeometry>
        </mxCell>
        <mxCell id="_okyq2U6kwoVMUsh7JZo-17" value="Save customer and order based on payment type" style="shape=note;whiteSpace=wrap;html=1;backgroundOutline=1;fontColor=#000000;darkOpacity=0.05;fillColor=#FFF9B2;strokeColor=none;fillStyle=solid;direction=west;gradientDirection=north;gradientColor=#FFF2A1;shadow=1;size=20;pointerEvents=1;align=center;" vertex="1" parent="1">
          <mxGeometry x="494" y="280" width="194" height="40" as="geometry" />
        </mxCell>
      </root>
    </mxGraphModel>
  </diagram>
</mxfile>
